<mxfile host="app.diagrams.net" agent="Mozilla/5.0 (X11; Linux x86_64) AppleWebKit/537.36 (KHTML, like Gecko) Chrome/119.0.0.0 Safari/537.36" version="25.0.3">
  <diagram name="第 1 页" id="wuffYNCdtXBAXJ_kR7Sy">
    <mxGraphModel dx="2074" dy="1051" grid="1" gridSize="10" guides="1" tooltips="1" connect="1" arrows="1" fold="1" page="1" pageScale="1" pageWidth="827" pageHeight="1169" math="0" shadow="0">
      <root>
        <mxCell id="0" />
        <mxCell id="1" parent="0" />
        <mxCell id="uQv0-Gy8HcvcPN8NiD0A-1" value="" style="rounded=1;whiteSpace=wrap;html=1;glass=0;" vertex="1" parent="1">
          <mxGeometry x="150" y="250" width="380" height="470" as="geometry" />
        </mxCell>
        <mxCell id="uQv0-Gy8HcvcPN8NiD0A-2" value="&lt;b&gt;&lt;font style=&quot;font-size: 18px;&quot;&gt;WMS&lt;/font&gt;&lt;/b&gt;" style="text;align=center;html=1;verticalAlign=middle;whiteSpace=wrap;rounded=0;" vertex="1" parent="1">
          <mxGeometry x="180" y="270" width="60" height="30" as="geometry" />
        </mxCell>
        <mxCell id="uQv0-Gy8HcvcPN8NiD0A-3" value="" style="rounded=1;whiteSpace=wrap;html=1;" vertex="1" parent="1">
          <mxGeometry x="180" y="310" width="320" height="370" as="geometry" />
        </mxCell>
        <mxCell id="uQv0-Gy8HcvcPN8NiD0A-5" value="&lt;b&gt;&lt;font style=&quot;font-size: 18px;&quot;&gt;RootWindowContainer&lt;/font&gt;&lt;/b&gt;" style="text;align=center;html=1;verticalAlign=middle;whiteSpace=wrap;rounded=0;" vertex="1" parent="1">
          <mxGeometry x="310" y="330" width="60" height="30" as="geometry" />
        </mxCell>
        <mxCell id="uQv0-Gy8HcvcPN8NiD0A-7" value="" style="rounded=1;whiteSpace=wrap;html=1;" vertex="1" parent="1">
          <mxGeometry x="200" y="370" width="280" height="120" as="geometry" />
        </mxCell>
        <mxCell id="uQv0-Gy8HcvcPN8NiD0A-8" value="&lt;b&gt;&lt;font style=&quot;font-size: 18px;&quot;&gt;DisplayContent&lt;/font&gt;&lt;/b&gt;" style="text;align=center;html=1;verticalAlign=middle;whiteSpace=wrap;rounded=0;" vertex="1" parent="1">
          <mxGeometry x="310" y="370" width="60" height="30" as="geometry" />
        </mxCell>
        <mxCell id="uQv0-Gy8HcvcPN8NiD0A-9" value="" style="rounded=1;whiteSpace=wrap;html=1;" vertex="1" parent="1">
          <mxGeometry x="200" y="530" width="280" height="110" as="geometry" />
        </mxCell>
        <mxCell id="uQv0-Gy8HcvcPN8NiD0A-10" value="&lt;b&gt;&lt;font style=&quot;font-size: 18px;&quot;&gt;DisplayContent&lt;/font&gt;&lt;/b&gt;" style="text;align=center;html=1;verticalAlign=middle;whiteSpace=wrap;rounded=0;" vertex="1" parent="1">
          <mxGeometry x="310" y="530" width="60" height="30" as="geometry" />
        </mxCell>
        <mxCell id="uQv0-Gy8HcvcPN8NiD0A-13" value="" style="rounded=1;whiteSpace=wrap;html=1;" vertex="1" parent="1">
          <mxGeometry x="247" y="400" width="186" height="70" as="geometry" />
        </mxCell>
        <mxCell id="uQv0-Gy8HcvcPN8NiD0A-14" value="&lt;b&gt;&lt;font style=&quot;font-size: 18px;&quot;&gt;InputMonitor&lt;/font&gt;&lt;/b&gt;" style="text;align=center;html=1;verticalAlign=middle;whiteSpace=wrap;rounded=0;" vertex="1" parent="1">
          <mxGeometry x="310" y="405" width="60" height="35" as="geometry" />
        </mxCell>
        <mxCell id="uQv0-Gy8HcvcPN8NiD0A-15" value="" style="rounded=1;whiteSpace=wrap;html=1;" vertex="1" parent="1">
          <mxGeometry x="247" y="560" width="186" height="70" as="geometry" />
        </mxCell>
        <mxCell id="uQv0-Gy8HcvcPN8NiD0A-16" value="&lt;b&gt;&lt;font style=&quot;font-size: 18px;&quot;&gt;InputMonitor&lt;/font&gt;&lt;/b&gt;" style="text;align=center;html=1;verticalAlign=middle;whiteSpace=wrap;rounded=0;" vertex="1" parent="1">
          <mxGeometry x="310" y="565" width="60" height="30" as="geometry" />
        </mxCell>
        <mxCell id="uQv0-Gy8HcvcPN8NiD0A-19" value="" style="rounded=1;whiteSpace=wrap;html=1;" vertex="1" parent="1">
          <mxGeometry x="650" y="250" width="180" height="470" as="geometry" />
        </mxCell>
        <mxCell id="uQv0-Gy8HcvcPN8NiD0A-20" value="&lt;b&gt;&lt;font style=&quot;font-size: 18px;&quot;&gt;SurfaceFlinger&lt;/font&gt;&lt;/b&gt;" style="text;align=center;html=1;verticalAlign=middle;whiteSpace=wrap;rounded=0;" vertex="1" parent="1">
          <mxGeometry x="710" y="270" width="60" height="30" as="geometry" />
        </mxCell>
        <mxCell id="uQv0-Gy8HcvcPN8NiD0A-23" value="" style="rounded=1;whiteSpace=wrap;html=1;" vertex="1" parent="1">
          <mxGeometry x="970" y="250" width="220" height="470" as="geometry" />
        </mxCell>
        <mxCell id="uQv0-Gy8HcvcPN8NiD0A-24" value="&lt;b&gt;&lt;font style=&quot;font-size: 18px;&quot;&gt;InputFlinger&lt;/font&gt;&lt;/b&gt;" style="text;align=center;html=1;verticalAlign=middle;whiteSpace=wrap;rounded=0;" vertex="1" parent="1">
          <mxGeometry x="1060" y="270" width="60" height="30" as="geometry" />
        </mxCell>
        <mxCell id="uQv0-Gy8HcvcPN8NiD0A-25" value="" style="rounded=1;whiteSpace=wrap;html=1;" vertex="1" parent="1">
          <mxGeometry x="680" y="315" width="120" height="365" as="geometry" />
        </mxCell>
        <mxCell id="uQv0-Gy8HcvcPN8NiD0A-26" value="&lt;div style=&quot;font-family: &amp;quot;JetBrains Mono&amp;quot;, monospace; font-size: 12pt; white-space: pre;&quot;&gt;mLocklessTransactionQueue&lt;/div&gt;" style="text;align=center;html=1;verticalAlign=middle;whiteSpace=wrap;rounded=0;" vertex="1" parent="1">
          <mxGeometry x="675" y="320" width="60" height="30" as="geometry" />
        </mxCell>
        <mxCell id="uQv0-Gy8HcvcPN8NiD0A-30" style="edgeStyle=orthogonalEdgeStyle;rounded=0;orthogonalLoop=1;jettySize=auto;html=1;exitX=1;exitY=0.5;exitDx=0;exitDy=0;entryX=0.019;entryY=0.329;entryDx=0;entryDy=0;entryPerimeter=0;" edge="1" parent="1" source="uQv0-Gy8HcvcPN8NiD0A-13" target="uQv0-Gy8HcvcPN8NiD0A-25">
          <mxGeometry relative="1" as="geometry" />
        </mxCell>
        <mxCell id="uQv0-Gy8HcvcPN8NiD0A-32" style="edgeStyle=orthogonalEdgeStyle;rounded=0;orthogonalLoop=1;jettySize=auto;html=1;exitX=1;exitY=0.5;exitDx=0;exitDy=0;entryX=0.019;entryY=0.329;entryDx=0;entryDy=0;entryPerimeter=0;" edge="1" parent="1">
          <mxGeometry relative="1" as="geometry">
            <mxPoint x="433" y="594" as="sourcePoint" />
            <mxPoint x="683" y="594" as="targetPoint" />
          </mxGeometry>
        </mxCell>
        <mxCell id="uQv0-Gy8HcvcPN8NiD0A-33" value="&lt;span style=&quot;font-size: 18px;&quot;&gt;&lt;b&gt;windowInfo/focusWindow&lt;/b&gt;&lt;/span&gt;" style="text;align=center;html=1;verticalAlign=middle;whiteSpace=wrap;rounded=0;" vertex="1" parent="1">
          <mxGeometry x="530" y="400" width="60" height="30" as="geometry" />
        </mxCell>
        <mxCell id="uQv0-Gy8HcvcPN8NiD0A-35" value="&lt;span style=&quot;font-size: 18px;&quot;&gt;&lt;b&gt;windowInfo/focusWindow&lt;/b&gt;&lt;/span&gt;" style="text;align=center;html=1;verticalAlign=middle;whiteSpace=wrap;rounded=0;" vertex="1" parent="1">
          <mxGeometry x="530" y="555" width="60" height="30" as="geometry" />
        </mxCell>
      </root>
    </mxGraphModel>
  </diagram>
</mxfile>
